<svg id="Layer_1" data-name="Layer 1" xmlns="http://www.w3.org/2000/svg" width="696.98" height="67.92" viewBox="0 0 696.98 67.92"><path d="M27.86,37.78q.41,0,5.68-11.38t6.51-13.26a6.31,6.31,0,0,1,2.84-2.53A14.59,14.59,0,0,1,48,10c2.36,0,3.53.54,3.53,1.64l-.7.88-.91,1a7,7,0,0,0-1.24,2.65,23.19,23.19,0,0,0-.37,5A212.85,212.85,0,0,0,49.1,42.5,6.44,6.44,0,0,0,51,46.64c1.07,1,1.61,1.68,1.61,2l-.74.52a15.39,15.39,0,0,1-5.53.65c-2.76,0-4.48-.36-5.19-1.08l-.29-.65a19,19,0,0,1,.64-3.5,22.33,22.33,0,0,0,.65-5.29q0-19.21-1.23-19.22-.61,0-5.6,11.9t-6.11,14a3.36,3.36,0,0,1-3,2.06q-1.29,0-7-14.07T12.45,19.85q-.82,0-.82,14.38,0,6.39.21,7.85c.13,1,.36,2.15.68,3.52A14.76,14.76,0,0,1,13,48.33c0,.44-.31.82-.91,1.11a5.46,5.46,0,0,1-2.34.44H8.14q-4.83,0-4.83-1.23c0-.41.55-1.09,1.66-2A5.78,5.78,0,0,0,6.9,44.15q.27-1,.75-10.55C8,27.27,8.12,23,8.12,20.7A18.55,18.55,0,0,0,7.71,16a7.2,7.2,0,0,0-1.89-2.8c-1-1-1.48-1.72-1.48-2.23S6.14,10,9.76,10a10.29,10.29,0,0,1,3.6.58,6.89,6.89,0,0,1,3,2.72q1.49,2.16,6.2,13.32T27.86,37.78Z"/><path d="M64.93,39a7.2,7.2,0,0,0,2.52,5.59,9.2,9.2,0,0,0,6.39,2.26,8.43,8.43,0,0,0,2.82-.45c.85-.31,1.78-.67,2.79-1.1a7.26,7.26,0,0,1,1.89-.65q1.17,0,1.17,1.26c0,1.13-1.45,2.35-4.34,3.63a14.55,14.55,0,0,1-6,1.26h-.65a13,13,0,0,1-9.14-3.34,12,12,0,0,1-3-4.64,16.66,16.66,0,0,1-1.09-6.08l0-.67v-.68a12.78,12.78,0,0,1,1.29-5.53,15.57,15.57,0,0,1,3.13-4.48,12.79,12.79,0,0,1,9.12-3.73q8,0,10.6,6.22a9.33,9.33,0,0,1,.82,3.6v.58a2.65,2.65,0,0,1-1.67,2.71q-1.67.69-7.88,1.13c-4.14.3-6.39.49-6.74.59A2.36,2.36,0,0,0,64.93,39Zm12.19-7.77v-.9a5.7,5.7,0,0,0-1.56-3.91,4.87,4.87,0,0,0-3.8-1.75H71.2a4.63,4.63,0,0,1-.56.06c-1.36,0-2.66.78-3.88,2.34a8,8,0,0,0-1.83,5v.38c0,.63.37.94,1.11.94l.47.09.68,0h.17l.21,0,5.65-.32,1.06-.12C76.17,33.09,77.12,32.49,77.12,31.27Z"/><path d="M108.47,22a15,15,0,0,0,.27-3.87,16.42,16.42,0,0,0-.5-4.73,5.11,5.11,0,0,0-1.74-2.49c-.83-.66-1.25-1.15-1.25-1.48s.23-.63.68-.88q1.81-1.05,5.91-1h.71a2.19,2.19,0,0,1,2.34,2.19q.09.67.09,16.75T115.21,44a4.25,4.25,0,0,0,1.12,2.45c.11.12.49.41,1.12.89s1,.9,1,1.26-.28.69-.82,1a12,12,0,0,1-5.45.91,2.83,2.83,0,0,1-2.11-.79,11.9,11.9,0,0,0-1.69-1.55,7.4,7.4,0,0,0-1.33.67,24.11,24.11,0,0,1-2.89,1.36,11,11,0,0,1-4.17.69,10,10,0,0,1-4.6-1.08,11.11,11.11,0,0,1-5.48-6.59,18.8,18.8,0,0,1-.94-6,15.38,15.38,0,0,1,3.8-10.78q3.8-4.15,10.47-4.16l3.84.35C107.82,22.6,108.3,22.39,108.47,22Zm-.14,8.29a4.91,4.91,0,0,0-1.53-3.79,5.67,5.67,0,0,0-4-1.43h-.56a6.06,6.06,0,0,0-2.81.8,6.54,6.54,0,0,0-2.46,2.28A13.35,13.35,0,0,0,95,35.52v1.73a12.54,12.54,0,0,0,2,7.27,5.74,5.74,0,0,0,4.81,2.87h.85a5.35,5.35,0,0,0,4.08-1.7,6.13,6.13,0,0,0,1.58-4.34l.06-.61v-.62l.06-1.52V35.79l0-.94v-.91l0-.32V32.07l0-.3v-.61C108.35,30.77,108.33,30.46,108.33,30.25Z"/><path d="M125.56,25.77c-1-.49-1.52-.95-1.52-1.38a1.17,1.17,0,0,1,.61-1c1.43-.86,3.69-1.28,6.77-1.28h.85a1.58,1.58,0,0,1,1.79,1.46q.12.8.12,10.65c0,6.57.13,10.34.41,11.31a3.5,3.5,0,0,0,2,2.22c1,.52,1.55,1,1.55,1.57,0,.74-2.42,1.12-7.26,1.12l-.88,0h-3.58c-1.42,0-2.14-.35-2.14-1s.44-1.15,1.31-1.7a4.72,4.72,0,0,0,1.8-1.82c.37-.72.56-2.41.56-5.06l0-.94V39l0-1.38v-.9l0-.91q0-6.94-.45-8.1A3.61,3.61,0,0,0,125.56,25.77Zm9.32-13.07a3.34,3.34,0,0,1-1.1,2.39,3.16,3.16,0,0,1-2.18,1.1,1.69,1.69,0,0,1-.38.06l-.65.05a4,4,0,0,1-2.62-1,3.12,3.12,0,0,1-1.16-2.49v-.53A3.23,3.23,0,0,1,128,9.76a4.14,4.14,0,0,1,2.8-1H131l1,.11a2.81,2.81,0,0,1,1.89,1,2.88,2.88,0,0,1,1,2l.06.27Z"/><path d="M164.68,30.22c-.82,0-2-.85-3.41-2.55a6.51,6.51,0,0,0-5-2.55A5.67,5.67,0,0,0,151.44,28q-1.94,2.82-1.93,8t2.38,8.1A7.67,7.67,0,0,0,158.12,47a10.25,10.25,0,0,0,3.53-.53,27.2,27.2,0,0,0,2.64-1.13,4.76,4.76,0,0,1,1.71-.6c.57,0,.85.37.85,1.11q0,1.71-3.43,3.37a15,15,0,0,1-6.65,1.67A13.39,13.39,0,0,1,146.69,47a13.32,13.32,0,0,1-2.6-4.15A13.87,13.87,0,0,1,143,37.37v-1.7a13.58,13.58,0,0,1,1.14-5.27A13.14,13.14,0,0,1,151.44,23a15.33,15.33,0,0,1,5.77-1.17h.68a14.82,14.82,0,0,1,6.7,1.38,3.83,3.83,0,0,1,2.23,3.72,3.7,3.7,0,0,1-.69,2.5A2,2,0,0,1,164.68,30.22Z"/><path d="M173.77,25.77c-1-.49-1.52-.95-1.52-1.38a1.17,1.17,0,0,1,.61-1c1.43-.86,3.69-1.28,6.77-1.28h.85a1.58,1.58,0,0,1,1.79,1.46q.12.8.12,10.65c0,6.57.13,10.34.41,11.31a3.5,3.5,0,0,0,2,2.22c1,.52,1.55,1,1.55,1.57,0,.74-2.42,1.12-7.26,1.12l-.88,0h-3.58c-1.42,0-2.14-.35-2.14-1s.44-1.15,1.31-1.7a4.72,4.72,0,0,0,1.8-1.82c.37-.72.56-2.41.56-5.06l0-.94V39l0-1.38v-.9l0-.91q0-6.94-.45-8.1A3.61,3.61,0,0,0,173.77,25.77Zm9.32-13.07a3.34,3.34,0,0,1-1.1,2.39,3.16,3.16,0,0,1-2.18,1.1,1.69,1.69,0,0,1-.38.06l-.65.05a4,4,0,0,1-2.62-1A3.12,3.12,0,0,1,175,12.85v-.53a3.23,3.23,0,0,1,1.22-2.56,4.14,4.14,0,0,1,2.8-1h.14l1,.11a2.81,2.81,0,0,1,1.89,1,2.88,2.88,0,0,1,1,2l.06.27Z"/><path d="M195.55,50.08c-2.76,0-4.13-.39-4.13-1.17a1.81,1.81,0,0,1,1.08-1.58,4.91,4.91,0,0,0,2.29-2c.21-.59.32-3.42.32-8.46s-.15-8-.45-8.88A4.37,4.37,0,0,0,193,25.83q-1.2-.85-1.2-1.38c0-.35.26-.69.79-1a12.06,12.06,0,0,1,5.86-1.08,2.28,2.28,0,0,1,1.87.82,6.1,6.1,0,0,1,.66,1.27c.29.66.48,1,.57,1a4,4,0,0,0,1.73-.79q4-2.71,7.33-2.72h1a8,8,0,0,1,4.28,1.17,7.61,7.61,0,0,1,3,3.52q1,2.34,1,10.21t.33,8.79a3.64,3.64,0,0,0,1.91,1.71c1,.53,1.56,1,1.56,1.55q0,1.32-8.32,1.32h-.88c-1.75,0-2.63-.42-2.63-1.26a3.71,3.71,0,0,1,.64-1.27,6.41,6.41,0,0,0,.88-2.25,71,71,0,0,0,.24-8.1c0-4.58-.29-7.52-.85-8.83a4,4,0,0,0-3.9-2.69,8.49,8.49,0,0,0-3.85.92,5.71,5.71,0,0,0-2.7,2.61q-.83,1.68-.83,8.05a45.37,45.37,0,0,0,.35,7.71,8.15,8.15,0,0,0,.85,2.15L203.75,49c0,.76-1.53,1.14-4.6,1.14l-1.78-.06Z"/><path d="M234.61,39a7.2,7.2,0,0,0,2.52,5.59,9.2,9.2,0,0,0,6.39,2.26,8.43,8.43,0,0,0,2.82-.45c.85-.31,1.78-.67,2.79-1.1a7.26,7.26,0,0,1,1.89-.65q1.17,0,1.17,1.26c0,1.13-1.45,2.35-4.34,3.63a14.55,14.55,0,0,1-6,1.26h-.65A13,13,0,0,1,232,47.5,12.12,12.12,0,0,1,229,42.86a16.87,16.87,0,0,1-1.08-6.08l0-.67v-.68a12.78,12.78,0,0,1,1.29-5.53,15.57,15.57,0,0,1,3.13-4.48,12.79,12.79,0,0,1,9.12-3.73q8,0,10.6,6.22a9.33,9.33,0,0,1,.82,3.6v.58a2.65,2.65,0,0,1-1.67,2.71q-1.66.69-7.88,1.13c-4.14.3-6.39.49-6.74.59A2.36,2.36,0,0,0,234.61,39Zm12.19-7.77v-.9a5.7,5.7,0,0,0-1.56-3.91,4.87,4.87,0,0,0-3.8-1.75h-.56a4.63,4.63,0,0,1-.56.06c-1.36,0-2.66.78-3.88,2.34a8,8,0,0,0-1.83,5v.38c0,.63.37.94,1.11.94l.47.09.68,0H237l.21,0,5.65-.32,1.06-.12C245.85,33.09,246.8,32.49,246.8,31.27Z"/><path d="M299.46,37.78q.41,0,5.68-11.38t6.51-13.26a6.31,6.31,0,0,1,2.84-2.53,14.59,14.59,0,0,1,5.14-.66c2.36,0,3.53.54,3.53,1.64l-.7.88-.91,1a6.89,6.89,0,0,0-1.24,2.65,23.19,23.19,0,0,0-.37,5,212.85,212.85,0,0,0,.76,21.45,6.44,6.44,0,0,0,1.91,4.14c1.07,1,1.61,1.68,1.61,2l-.74.52a15.39,15.39,0,0,1-5.53.65q-4.14,0-5.19-1.08l-.29-.65a19,19,0,0,1,.64-3.5,22.33,22.33,0,0,0,.65-5.29q0-19.21-1.23-19.22-.61,0-5.6,11.9t-6.11,14a3.36,3.36,0,0,1-3,2.06q-1.29,0-7.05-14.07t-6.75-14.08q-.82,0-.82,14.38,0,6.39.21,7.85c.13,1,.36,2.15.68,3.52a14.76,14.76,0,0,1,.49,2.73c0,.44-.31.82-.91,1.11a5.46,5.46,0,0,1-2.34.44h-1.62q-4.83,0-4.83-1.23c0-.41.55-1.09,1.66-2a5.78,5.78,0,0,0,1.93-2.46q.27-1,.75-10.55c.31-6.33.46-10.64.46-12.9A18.1,18.1,0,0,0,279.3,16a7.06,7.06,0,0,0-1.88-2.8c-1-1-1.48-1.72-1.48-2.23s1.8-.94,5.42-.94a10.29,10.29,0,0,1,3.6.58,6.89,6.89,0,0,1,3,2.72q1.49,2.16,6.2,13.32T299.46,37.78Z"/><path d="M331.61,27.29c0-1.45,1.14-2.74,3.44-3.88a15.86,15.86,0,0,1,7.13-1.72h.24a15.45,15.45,0,0,1,5.62.85q4.29,1.71,4.9,7.21c0,.37.05,2.83.05,7.37s.13,7.2.37,8a2.83,2.83,0,0,0,2,1.73c1.09.37,1.63.72,1.63,1.06a1.74,1.74,0,0,1-1.06,1.61,8.81,8.81,0,0,1-4.14,1.11,4.25,4.25,0,0,1-3-.94A16.08,16.08,0,0,0,346.84,48c-.08,0-1.18.5-3.31,1.48A13.59,13.59,0,0,1,337.94,51a7.77,7.77,0,0,1-5.66-2,6.48,6.48,0,0,1-2-4.83V43.4A7,7,0,0,1,332.87,38q2.64-2.31,9.49-3.6a11.12,11.12,0,0,0,3.13-.88c.86-.55,1.29-1.66,1.29-3.34a5.27,5.27,0,0,0-1.34-3.87A4.87,4.87,0,0,0,341.83,25q-2.25,0-4.35,2.63c-1.39,1.75-2.67,2.62-3.82,2.62C332.29,30.25,331.61,29.26,331.61,27.29Zm14.24,9.46h-.5a11.21,11.21,0,0,0-6.4,1.72,5,5,0,0,0-2.57,4.26v.59a4.24,4.24,0,0,0,.93,2.68,2.87,2.87,0,0,0,2.38,1.18l.36.06h.87a6,6,0,0,0,5-2.49c.57-.72.85-2.21.85-4.45v-.53l0-.7v-.71C346.78,37.29,346.47,36.75,345.85,36.75Z"/><path d="M366.1,50.08c-2.76,0-4.13-.39-4.13-1.17a1.81,1.81,0,0,1,1.08-1.58,4.91,4.91,0,0,0,2.29-2c.21-.59.32-3.42.32-8.46s-.15-8-.45-8.88a4.37,4.37,0,0,0-1.66-2.15q-1.2-.85-1.2-1.38c0-.35.26-.69.79-1A12.06,12.06,0,0,1,369,22.37a2.28,2.28,0,0,1,1.87.82,6.1,6.1,0,0,1,.66,1.27c.29.66.48,1,.57,1a4,4,0,0,0,1.73-.79q4.05-2.71,7.33-2.72h1a8,8,0,0,1,4.28,1.17,7.61,7.61,0,0,1,2.95,3.52q1,2.34,1,10.21t.33,8.79a3.64,3.64,0,0,0,1.91,1.71c1,.53,1.56,1,1.56,1.55q0,1.32-8.32,1.32H385c-1.75,0-2.63-.42-2.63-1.26a3.71,3.71,0,0,1,.64-1.27,6.41,6.41,0,0,0,.88-2.25,71,71,0,0,0,.24-8.1c0-4.58-.29-7.52-.85-8.83a4,4,0,0,0-3.9-2.69,8.49,8.49,0,0,0-3.85.92,5.71,5.71,0,0,0-2.7,2.61c-.56,1.12-.83,3.8-.83,8.05a45.37,45.37,0,0,0,.35,7.71,8.15,8.15,0,0,0,.85,2.15L374.3,49c0,.76-1.53,1.14-4.6,1.14l-1.78-.06Z"/><path d="M429.05,9.21h3.13q10.36,0,13.42,6.24a11.75,11.75,0,0,1,1.14,5.19v.88a10.5,10.5,0,0,1-4.89,9q-3.5,2.43-10.78,3c-2.07.16-3.32.48-3.75,1q-1,1.14-1,5.49t.91,5.64a7,7,0,0,0,2,1.54c1,.61,1.54,1.09,1.54,1.42,0,1-1.26,1.55-3.78,1.55h-7.42c-2.83,0-4.24-.47-4.24-1.4,0-.59.51-1.19,1.55-1.82a4.63,4.63,0,0,0,2-2,18.87,18.87,0,0,0,.44-5.37l0-.74c0-.5,0-1,0-1.52V35.76l0-1.53V30.42l0-1.52q0-11.16-.46-13.37a4.24,4.24,0,0,0-1.93-3.06c-1-.57-1.48-1.1-1.48-1.6a1.16,1.16,0,0,1,.82-1.1,19.31,19.31,0,0,1,5-.35l3.11-.06,2.31-.09C427.71,9.23,428.5,9.21,429.05,9.21Zm-2.93,7.59V27.91a4.25,4.25,0,0,0,.55,2.65q.56.6,2.73.6h1.37A8.47,8.47,0,0,0,437,28.77a8.85,8.85,0,0,0,2.39-6.55v-1a8.51,8.51,0,0,0-2.55-6.59,9.93,9.93,0,0,0-7-2.34h-.27c-1.68,0-2.68.22-3,.67S426.12,14.71,426.12,16.8Z"/><path d="M452.46,48.71q0-.54,1.26-1.92a6.27,6.27,0,0,0,1.57-2.8q.3-1.41.31-14.82T455,12.91a3.09,3.09,0,0,0-1.23-2,12.61,12.61,0,0,1-1.7-1.29,1.55,1.55,0,0,1,1.14-1.52,13.81,13.81,0,0,1,5.07-.85h1a2,2,0,0,1,1.92,1.09q.57,1.08.57,4.77l0,1.09q0,1.08,0,2.16l-.06,2.17v2.17q0,3.84,1.35,3.84c.1,0,.6-.23,1.49-.62a17.54,17.54,0,0,1,6.83-1.81c3.44,0,5.85,1.37,7.24,4.13Q479.88,29,479.88,40a26.21,26.21,0,0,0,.31,5.29,4.77,4.77,0,0,0,1.67,2.16c.91.74,1.36,1.21,1.36,1.4,0,.61-.39,1-1.18,1.23a31.94,31.94,0,0,1-6.05.32h-1c-2.13,0-3.19-.42-3.19-1.28a4.47,4.47,0,0,1,.76-1.48,6.93,6.93,0,0,0,1-2.68,75.8,75.8,0,0,0,.23-7.83c0-4.22-.19-6.87-.59-8A8.13,8.13,0,0,0,468.69,26a6.7,6.7,0,0,0-5.39,2.4q-1.49,1.77-1.49,8a65.14,65.14,0,0,0,.29,8,7.51,7.51,0,0,0,1.28,3.1,5.52,5.52,0,0,1,1,1.71c0,.71-2,1.06-5.95,1.06S452.46,49.72,452.46,48.71Z"/><path d="M489.65,27.29c0-1.45,1.14-2.74,3.44-3.88a15.86,15.86,0,0,1,7.13-1.72h.24a15.45,15.45,0,0,1,5.62.85q4.29,1.71,4.9,7.21c0,.37,0,2.83,0,7.37s.13,7.2.37,8a2.85,2.85,0,0,0,2,1.73c1.09.37,1.63.72,1.63,1.06A1.74,1.74,0,0,1,514,49.5a8.81,8.81,0,0,1-4.14,1.11,4.25,4.25,0,0,1-3-.94A16.08,16.08,0,0,0,504.88,48c-.08,0-1.18.5-3.31,1.48A13.59,13.59,0,0,1,496,51a7.77,7.77,0,0,1-5.66-2,6.48,6.48,0,0,1-2.05-4.83V43.4A7,7,0,0,1,490.91,38q2.64-2.31,9.49-3.6a11.12,11.12,0,0,0,3.13-.88c.86-.55,1.29-1.66,1.29-3.34a5.27,5.27,0,0,0-1.34-3.87A4.87,4.87,0,0,0,499.87,25q-2.25,0-4.35,2.63c-1.39,1.75-2.67,2.62-3.82,2.62C490.33,30.25,489.65,29.26,489.65,27.29Zm14.24,9.46h-.5a11.21,11.21,0,0,0-6.4,1.72,5,5,0,0,0-2.57,4.26v.59a4.24,4.24,0,0,0,.93,2.68,2.87,2.87,0,0,0,2.38,1.18l.36.06H499a6,6,0,0,0,5-2.49c.57-.72.85-2.21.85-4.45v-.53l0-.7v-.71C504.82,37.29,504.51,36.75,503.89,36.75Z"/><path d="M534.69,49.17q0,1.15-5.31,1.15h-3.1l-1.23-.06-1.85,0c-2.07,0-3.1-.37-3.1-1.11,0-.53.46-1.09,1.39-1.69a4.41,4.41,0,0,0,1.87-2.31c.32-.95.49-3.75.49-8.4s-.16-7.47-.46-8.46A3.71,3.71,0,0,0,522,26.12c-1.15-.76-1.73-1.32-1.73-1.67a1.16,1.16,0,0,1,.62-.94q1.82-1.23,6.15-1.23h.56A2.43,2.43,0,0,1,529.94,24c.47,1.13.85,1.69,1.14,1.69a3.23,3.23,0,0,0,1.51-.82,19.31,19.31,0,0,1,2.58-1.64,6.84,6.84,0,0,1,3.35-.82,3.92,3.92,0,0,1,2.83.95,3.28,3.28,0,0,1,1,2.45,3.19,3.19,0,0,1-.79,2.28,2.28,2.28,0,0,1-1.64.76,5.61,5.61,0,0,1-2.31-.71,5.66,5.66,0,0,0-2.41-.72,3.82,3.82,0,0,0-2.11.8,6.14,6.14,0,0,0-1.94,2.87,21.54,21.54,0,0,0-.81,7.07c0,3.33.23,5.47.7,6.44a7.82,7.82,0,0,0,2.19,2.65C534.19,48,534.69,48.67,534.69,49.17Z"/><path d="M567.64,44.82a69.82,69.82,0,0,0,.22-7.8q0-6.69-1-8.73A3.85,3.85,0,0,0,563,26.24a5.88,5.88,0,0,0-3.45,1.3,6.47,6.47,0,0,0-2.38,2.88q-.59,1.59-.58,7.37t.1,7.14a6.81,6.81,0,0,0,.43,2.11l.38.73a3.41,3.41,0,0,1,.47,1.32c0,.72-1.5,1.08-4.49,1.08s-4.93-.3-5.83-.91l-.52-.55a1.92,1.92,0,0,1,.58-1.41,9,9,0,0,0,2.08-2.72c.22-.63.32-3.4.32-8.31s-.42-8.12-1.26-9.62l-.61-.8a2.81,2.81,0,0,1-.76-1.47c0-.35.36-.75,1.1-1.21a6.7,6.7,0,0,1,3.42-.68,4.57,4.57,0,0,1,3.5,1.24c.79.83,1.34,1.25,1.67,1.25l.88-.41,2.23-1.32a11.74,11.74,0,0,1,5.54-1.44,9.42,9.42,0,0,1,5.36,1.72c1.7,1.14,2.76,1.71,3.19,1.71l1-.47,1.08-.64a22.05,22.05,0,0,1,3-1.47,10.54,10.54,0,0,1,4-.64,7,7,0,0,1,6.8,4q1.47,2.92,1.47,13.71a25,25,0,0,0,.29,5.38,5,5,0,0,0,1.58,1.8q1.29,1.05,1.29,1.23v.7l-.56.53c-.93.57-3.32.85-7.15.85-1.83,0-2.75-.45-2.75-1.35a9.14,9.14,0,0,1,.4-1.32,8.7,8.7,0,0,0,.46-1.89c.05-.47.08-3,.08-7.45s-.22-7.31-.66-8.45a7,7,0,0,0-1.64-2.64,4.21,4.21,0,0,0-3-.92,5.27,5.27,0,0,0-3.36,1.08,6.07,6.07,0,0,0-1.94,2.42q-.56,1.34-.55,8c0,4.47.13,7.06.41,7.75a5.41,5.41,0,0,0,1.53,2c.75.67,1.13,1.11,1.13,1.32q0,1.47-5.13,1.47h-4.1c-2.05,0-3.07-.3-3.07-.9a2.5,2.5,0,0,1,.76-1.71A6.63,6.63,0,0,0,567.64,44.82Z"/><path d="M601.21,27.29c0-1.45,1.14-2.74,3.44-3.88a15.83,15.83,0,0,1,7.13-1.72H612a15.45,15.45,0,0,1,5.62.85q4.27,1.71,4.89,7.21.06.55.06,7.37t.37,8a2.83,2.83,0,0,0,2,1.73c1.09.37,1.63.72,1.63,1.06a1.74,1.74,0,0,1-1.06,1.61,8.84,8.84,0,0,1-4.14,1.11,4.25,4.25,0,0,1-3-.94A17.11,17.11,0,0,0,616.44,48c-.08,0-1.18.5-3.31,1.48a13.6,13.6,0,0,1-5.6,1.48,7.76,7.76,0,0,1-5.65-2,6.48,6.48,0,0,1-2-4.83V43.4A7,7,0,0,1,602.47,38q2.63-2.31,9.49-3.6a11.12,11.12,0,0,0,3.13-.88c.86-.55,1.29-1.66,1.29-3.34A5.24,5.24,0,0,0,615,26.35a4.83,4.83,0,0,0-3.6-1.35q-2.25,0-4.35,2.63t-3.82,2.62C601.89,30.25,601.21,29.26,601.21,27.29Zm14.23,9.46H615a11.19,11.19,0,0,0-6.4,1.72A5,5,0,0,0,606,42.73v.59A4.29,4.29,0,0,0,606.9,46a2.9,2.9,0,0,0,2.39,1.18l.35.06h.88a6,6,0,0,0,5-2.49c.57-.72.85-2.21.85-4.45v-.53l0-.7v-.71C616.38,37.29,616.07,36.75,615.44,36.75Z"/><path d="M652.92,30.22c-.82,0-1.95-.85-3.41-2.55a6.48,6.48,0,0,0-5-2.55A5.67,5.67,0,0,0,639.68,28q-1.93,2.82-1.93,8c0,3.46.79,6.16,2.39,8.1A7.64,7.64,0,0,0,646.36,47a10.25,10.25,0,0,0,3.53-.53,27.2,27.2,0,0,0,2.64-1.13,4.76,4.76,0,0,1,1.71-.6c.57,0,.85.37.85,1.11q0,1.71-3.43,3.37A15,15,0,0,1,645,50.87,13.35,13.35,0,0,1,634.94,47a13.16,13.16,0,0,1-2.61-4.15,13.87,13.87,0,0,1-1.06-5.43v-1.7a13.42,13.42,0,0,1,1.15-5.27A13.09,13.09,0,0,1,639.68,23a15.37,15.37,0,0,1,5.77-1.17h.68a14.89,14.89,0,0,1,6.71,1.38,3.84,3.84,0,0,1,2.22,3.72,3.7,3.7,0,0,1-.69,2.5A1.94,1.94,0,0,1,652.92,30.22Z"/><path d="M669.81,26.06q0,3.14,4.86,14.88c.45,1.1.81,1.64,1.08,1.64s.79-.79,1.53-2.37q4-8.55,4-12.92a4.5,4.5,0,0,0-.41-2.05l-.32-.53a2.85,2.85,0,0,1-.7-1.32q0-1.14,3.72-1.14h1.87c2.36,0,3.55.45,3.55,1.35,0,.51-.49,1.28-1.45,2.33a11.08,11.08,0,0,0-2.1,3q-.65,1.47-4.7,12.23A124,124,0,0,1,674.5,55.9a23.43,23.43,0,0,1-4.15,5.67,5.89,5.89,0,0,1-3.94,1.73h-.76a4,4,0,0,1-2.6-.87A2.36,2.36,0,0,1,662,60.64a1.78,1.78,0,0,1,.74-1.49,3.19,3.19,0,0,1,2-.57l.67.06q.45,0,1.35,0,2.06,0,3.78-2.64a9.65,9.65,0,0,0,1.73-5.33q0-2.7-8.35-20.36A15.36,15.36,0,0,0,661.65,27c-1-1.16-1.48-2-1.48-2.41,0-.74.52-1.26,1.55-1.56a19.23,19.23,0,0,1,5-.46c2.29,0,3.44.5,3.44,1.5A11,11,0,0,0,669.81,26.06Z"/></svg>